#Comment line ignore any data following # character 
#Hierarchical Translation and Rotation (.htr) file 
[Header]	
#Header keywords are followed by a single value 
FileType HTR		#Single word string
DataType HTRS		#Translation followed by rotation and scale data
FileVersion 1		#integer
NumSegments 84		#integer
NumFrames 2		#integer
DataFrameRate 30		#integer, data frame rate in this file
EulerRotationOrder ZYX
CalibrationUnits mm
RotationUnits Degrees
GlobalAxisofGravity Y
BoneLengthAxis Y
ScaleFactor 1.00
[SegmentNames&Hierarchy]
#CHILD	PARENT
MASTER GLOBAL
root MASTER
chest root
L_mid_tent01 root
R_mid_tent01 root
spine01 root
Bip01_Neck chest
L_humerus chest
R_humerus chest
weapon_bone chest
Bip01_Head Bip01_Neck
eye_left_bone Bip01_Head
eye_right_bone Bip01_Head
L_forearm L_humerus
L_front_hand L_forearm
L_weapon_bone L_forearm
L_front_hand01_01 L_front_hand
L_front_hand02_01 L_front_hand
L_front_hand03_01 L_front_hand
L_front_hand01_02 L_front_hand01_01
L_front_hand02_02 L_front_hand02_01
L_front_hand03_02 L_front_hand03_01
R_forearm R_humerus
R_front_hand R_forearm
R_weapon_bone R_forearm
R_front_hand01_01 R_front_hand
R_front_hand02_01 R_front_hand
R_front_hand03_01 R_front_hand
R_front_hand01_02 R_front_hand01_01
R_front_hand02_02 R_front_hand02_01
R_front_hand03_02 R_front_hand03_01
null_rope01_connect L_mid_tent01
Rope1_Seg01 null_rope01_connect
Rope1_Seg02 Rope1_Seg01
Rope1_Seg03 Rope1_Seg02
Rope1_Seg04 Rope1_Seg03
Rope1_Seg05 Rope1_Seg04
Rope1_Seg06 Rope1_Seg05
Rope1_Seg07 Rope1_Seg06
Rope1_Seg09 Rope1_Seg07
L_mid_hand01 Rope1_Seg09
L_mid_hand02 Rope1_Seg09
L_mid_hand03 Rope1_Seg09
null_rope02_connect R_mid_tent01
Rope2_Seg01 null_rope02_connect
Rope2_Seg02 Rope2_Seg01
Rope2_Seg03 Rope2_Seg02
Rope2_Seg04 Rope2_Seg03
Rope2_Seg05 Rope2_Seg04
Rope2_Seg06 Rope2_Seg05
Rope2_Seg07 Rope2_Seg06
Rope2_Seg09 Rope2_Seg07
R_mid_hand01 Rope2_Seg09
R_mid_hand02 Rope2_Seg09
R_mid_hand03 Rope2_Seg09
spine02 spine01
spine03 spine02
pelvis spine03
null_rope03_connect pelvis
null_rope04_connect pelvis
Rope3_Seg01 null_rope03_connect
Rope3_Seg02 Rope3_Seg01
Rope3_Seg03 Rope3_Seg02
Rope3_Seg04 Rope3_Seg03
Rope3_Seg05 Rope3_Seg04
Rope3_Seg06 Rope3_Seg05
Rope3_Seg07 Rope3_Seg06
Rope3_Seg08 Rope3_Seg07
Rope3_Seg09 Rope3_Seg08
R_rear_hand01 Rope3_Seg09
R_rear_hand02 Rope3_Seg09
R_rear_hand03 Rope3_Seg09
Rope4_Seg01 null_rope04_connect
Rope4_Seg02 Rope4_Seg01
Rope4_Seg03 Rope4_Seg02
Rope4_Seg04 Rope4_Seg03
Rope4_Seg05 Rope4_Seg04
Rope4_Seg06 Rope4_Seg05
Rope4_Seg07 Rope4_Seg06
Rope4_Seg08 Rope4_Seg07
Rope4_Seg09 Rope4_Seg08
L_rear_hand01 Rope4_Seg09
L_rear_hand02 Rope4_Seg09
L_rear_hand03 Rope4_Seg09
[BasePosition]
#SegmentName Tx, Ty, Tz, Rx, Ry, Rz, BoneLength
MASTER 0.000000 0.000000 0.000000 -90.000000 0.000000 0.000000 10.000000 
root 0.000000 0.000000 0.000000 0.000000 0.000000 0.000000 10.000000 
chest 0.000000 0.000000 0.000000 0.000000 0.000000 0.000000 10.000000 
L_mid_tent01 0.000000 0.000000 0.000000 0.000000 0.000000 0.000000 10.000000 
R_mid_tent01 0.000000 0.000000 0.000000 0.000000 0.000000 0.000000 10.000000 
spine01 0.000000 0.000000 0.000000 0.000000 0.000000 0.000000 10.000000 
Bip01_Neck 0.000000 0.000000 0.000000 0.000000 0.000000 0.000000 10.000000 
L_humerus 0.000000 0.000000 0.000000 0.000000 0.000000 0.000000 10.000000 
R_humerus 0.000000 0.000000 0.000000 0.000000 0.000000 0.000000 10.000000 
weapon_bone 0.000000 0.000000 0.000000 0.000000 0.000000 0.000000 10.000000 
Bip01_Head 0.000000 0.000000 0.000000 0.000000 0.000000 0.000000 10.000000 
eye_left_bone 0.000000 0.000000 0.000000 0.000000 0.000000 0.000000 10.000000 
eye_right_bone 0.000000 0.000000 0.000000 0.000000 0.000000 0.000000 10.000000 
L_forearm 0.000000 0.000000 0.000000 0.000000 0.000000 0.000000 10.000000 
L_front_hand 0.000000 0.000000 0.000000 0.000000 0.000000 0.000000 10.000000 
L_weapon_bone 0.000000 0.000000 0.000000 0.000000 0.000000 0.000000 10.000000 
L_front_hand01_01 0.000000 0.000000 0.000000 0.000000 0.000000 0.000000 10.000000 
L_front_hand02_01 0.000000 0.000000 0.000000 0.000000 0.000000 0.000000 10.000000 
L_front_hand03_01 0.000000 0.000000 0.000000 0.000000 0.000000 0.000000 10.000000 
L_front_hand01_02 0.000000 0.000000 0.000000 0.000000 0.000000 0.000000 10.000000 
L_front_hand02_02 0.000000 0.000000 0.000000 0.000000 0.000000 0.000000 10.000000 
L_front_hand03_02 0.000000 0.000000 0.000000 0.000000 0.000000 0.000000 10.000000 
R_forearm 0.000000 0.000000 0.000000 0.000000 0.000000 0.000000 10.000000 
R_front_hand 0.000000 0.000000 0.000000 0.000000 0.000000 0.000000 10.000000 
R_weapon_bone 0.000000 0.000000 0.000000 0.000000 0.000000 0.000000 10.000000 
R_front_hand01_01 0.000000 0.000000 0.000000 0.000000 0.000000 0.000000 10.000000 
R_front_hand02_01 0.000000 0.000000 0.000000 0.000000 0.000000 0.000000 10.000000 
R_front_hand03_01 0.000000 0.000000 0.000000 0.000000 0.000000 0.000000 10.000000 
R_front_hand01_02 0.000000 0.000000 0.000000 0.000000 0.000000 0.000000 10.000000 
R_front_hand02_02 0.000000 0.000000 0.000000 0.000000 0.000000 0.000000 10.000000 
R_front_hand03_02 0.000000 0.000000 0.000000 0.000000 0.000000 0.000000 10.000000 
null_rope01_connect 0.000000 0.000000 0.000000 0.000000 0.000000 0.000000 10.000000 
Rope1_Seg01 0.000000 0.000000 0.000000 0.000000 0.000000 0.000000 10.000000 
Rope1_Seg02 0.000000 0.000000 0.000000 0.000000 0.000000 0.000000 10.000000 
Rope1_Seg03 0.000000 0.000000 0.000000 0.000000 0.000000 0.000000 10.000000 
Rope1_Seg04 0.000000 0.000000 0.000000 0.000000 0.000000 0.000000 10.000000 
Rope1_Seg05 0.000000 0.000000 0.000000 0.000000 0.000000 0.000000 10.000000 
Rope1_Seg06 0.000000 0.000000 0.000000 0.000000 0.000000 0.000000 10.000000 
Rope1_Seg07 0.000000 0.000000 0.000000 0.000000 0.000000 0.000000 10.000000 
Rope1_Seg09 0.000000 0.000000 0.000000 0.000000 0.000000 0.000000 10.000000 
L_mid_hand01 0.000000 0.000000 0.000000 0.000000 0.000000 0.000000 10.000000 
L_mid_hand02 0.000000 0.000000 0.000000 0.000000 0.000000 0.000000 10.000000 
L_mid_hand03 0.000000 0.000000 0.000000 0.000000 0.000000 0.000000 10.000000 
null_rope02_connect 0.000000 0.000000 0.000000 0.000000 0.000000 0.000000 10.000000 
Rope2_Seg01 0.000000 0.000000 0.000000 0.000000 0.000000 0.000000 10.000000 
Rope2_Seg02 0.000000 0.000000 0.000000 0.000000 0.000000 0.000000 10.000000 
Rope2_Seg03 0.000000 0.000000 0.000000 0.000000 0.000000 0.000000 10.000000 
Rope2_Seg04 0.000000 0.000000 0.000000 0.000000 0.000000 0.000000 10.000000 
Rope2_Seg05 0.000000 0.000000 0.000000 0.000000 0.000000 0.000000 10.000000 
Rope2_Seg06 0.000000 0.000000 0.000000 0.000000 0.000000 0.000000 10.000000 
Rope2_Seg07 0.000000 0.000000 0.000000 0.000000 0.000000 0.000000 10.000000 
Rope2_Seg09 0.000000 0.000000 0.000000 0.000000 0.000000 0.000000 10.000000 
R_mid_hand01 0.000000 0.000000 0.000000 0.000000 0.000000 0.000000 10.000000 
R_mid_hand02 0.000000 0.000000 0.000000 0.000000 0.000000 0.000000 10.000000 
R_mid_hand03 0.000000 0.000000 0.000000 0.000000 0.000000 0.000000 10.000000 
spine02 0.000000 0.000000 0.000000 0.000000 0.000000 0.000000 10.000000 
spine03 0.000000 0.000000 0.000000 0.000000 0.000000 0.000000 10.000000 
pelvis 0.000000 0.000000 0.000000 0.000000 0.000000 0.000000 10.000000 
null_rope03_connect 0.000000 0.000000 0.000000 0.000000 0.000000 0.000000 10.000000 
null_rope04_connect 0.000000 0.000000 0.000000 0.000000 0.000000 0.000000 10.000000 
Rope3_Seg01 0.000000 0.000000 0.000000 0.000000 0.000000 0.000000 10.000000 
Rope3_Seg02 0.000000 0.000000 0.000000 0.000000 0.000000 0.000000 10.000000 
Rope3_Seg03 0.000000 0.000000 0.000000 0.000000 0.000000 0.000000 10.000000 
Rope3_Seg04 0.000000 0.000000 0.000000 0.000000 0.000000 0.000000 10.000000 
Rope3_Seg05 0.000000 0.000000 0.000000 0.000000 0.000000 0.000000 10.000000 
Rope3_Seg06 0.000000 0.000000 0.000000 0.000000 0.000000 0.000000 10.000000 
Rope3_Seg07 0.000000 0.000000 0.000000 0.000000 0.000000 0.000000 10.000000 
Rope3_Seg08 0.000000 0.000000 0.000000 0.000000 0.000000 0.000000 10.000000 
Rope3_Seg09 0.000000 0.000000 0.000000 0.000000 0.000000 0.000000 10.000000 
R_rear_hand01 0.000000 0.000000 0.000000 0.000000 0.000000 0.000000 10.000000 
R_rear_hand02 0.000000 0.000000 0.000000 0.000000 0.000000 0.000000 10.000000 
R_rear_hand03 0.000000 0.000000 0.000000 0.000000 0.000000 0.000000 10.000000 
Rope4_Seg01 0.000000 0.000000 0.000000 0.000000 0.000000 0.000000 10.000000 
Rope4_Seg02 0.000000 0.000000 0.000000 0.000000 0.000000 0.000000 10.000000 
Rope4_Seg03 0.000000 0.000000 0.000000 0.000000 0.000000 0.000000 10.000000 
Rope4_Seg04 0.000000 0.000000 0.000000 0.000000 0.000000 0.000000 10.000000 
Rope4_Seg05 0.000000 0.000000 0.000000 0.000000 0.000000 0.000000 10.000000 
Rope4_Seg06 0.000000 0.000000 0.000000 0.000000 0.000000 0.000000 10.000000 
Rope4_Seg07 0.000000 0.000000 0.000000 0.000000 0.000000 0.000000 10.000000 
Rope4_Seg08 0.000000 0.000000 0.000000 0.000000 0.000000 0.000000 10.000000 
Rope4_Seg09 0.000000 0.000000 0.000000 0.000000 0.000000 0.000000 10.000000 
L_rear_hand01 0.000000 0.000000 0.000000 0.000000 0.000000 0.000000 10.000000 
L_rear_hand02 0.000000 0.000000 0.000000 0.000000 0.000000 0.000000 10.000000 
L_rear_hand03 0.000000 0.000000 0.000000 0.000000 0.000000 0.000000 10.000000 
#Beginning of Data. Separated by tabs
#Fr	Tx	Ty	Tz	Rx	Ry	Rz	SF
[MASTER]
2 0.000000 0.000000 0.000000 0.001660 0.001660 0.001660 0.000000
3 0.000000 0.000000 0.000000 0.001660 0.001660 0.001660 0.000000
[root]
2 -16.502304 9.364140 1448.317383 -91.728912 -11.584501 -89.471634 1448.441650
3 -16.502304 9.364140 1448.317383 -91.728889 -11.584497 -89.471619 1448.441650
[chest]
2 -84.512650 -34.090519 0.000000 -2.144813 0.313244 176.732239 91.129311
3 -84.512650 -34.090519 0.000000 -2.144813 0.313244 176.732239 91.129311
[L_mid_tent01]
2 27.299511 22.177458 -249.918259 -28.266106 32.791580 -5.365355 252.381134
3 27.299511 22.177458 -249.918259 -28.266106 32.791584 -5.365355 252.381134
[R_mid_tent01]
2 23.228794 24.509907 226.238495 -156.204071 -32.814346 0.416457 228.744751
3 23.228794 24.509907 226.238495 -156.204071 -32.814346 0.416457 228.744751
[spine01]
2 -0.361383 -0.195265 0.000000 -0.000001 -0.000007 22.052340 0.410763
3 -0.361383 -0.195265 0.000000 -0.000001 -0.000007 22.052340 0.410763
[Bip01_Neck]
2 165.484543 71.581718 0.000119 175.896118 1.177290 24.871183 180.302734
3 165.484543 71.581718 0.000119 175.896118 1.177290 24.871183 180.302734
[L_humerus]
2 -13.983130 -135.272980 -120.471481 139.909836 88.317627 -130.289856 181.680161
3 -13.983130 -135.272980 -120.471481 139.909760 88.317856 -130.290115 181.680161
[R_humerus]
2 -13.983309 -135.273102 125.287651 133.576981 -87.684464 -45.901276 184.909012
3 -13.983309 -135.273102 125.287651 133.576981 -87.684464 -45.901276 184.909012
[weapon_bone]
2 235.964890 -300.705902 0.000000 0.000000 -89.951546 -128.212341 382.234833
3 235.964890 -300.705902 0.000000 0.000000 -89.951546 -128.212341 382.234833
[Bip01_Head]
2 193.865784 99.525146 7.890730 1.727521 4.534425 -43.429157 218.062973
3 193.865784 99.525146 7.890730 1.727521 4.534425 -43.429157 218.062973
[eye_left_bone]
2 -24.626970 125.451866 -64.772606 0.000000 -90.000000 -99.840431 143.318359
3 -24.626970 125.451866 -64.772606 0.000000 -90.000000 -99.840431 143.318359
[eye_right_bone]
2 -24.626970 125.451866 64.327362 0.000000 -89.980217 80.156387 143.117676
3 -24.626970 125.451866 64.327362 0.000000 -89.972023 80.156380 143.117676
[L_forearm]
2 322.776093 0.000000 -0.000119 0.000248 -0.002334 -102.125244 322.776093
3 322.776093 0.000000 -0.000119 0.000248 -0.002334 -102.125244 322.776093
[L_front_hand]
2 241.149185 -0.042021 -3.300071 -179.659958 -2.242151 -0.019832 241.171753
3 241.149185 -0.042021 -3.300071 -179.659958 -2.242151 -0.019832 241.171753
[L_weapon_bone]
2 156.183838 0.000000 0.000000 0.000014 0.000007 0.000001 156.183838
3 156.183838 0.000000 0.000000 0.000014 0.000007 0.000001 156.183838
[L_front_hand01_01]
2 86.095154 20.947098 -0.655860 -0.366594 -0.477154 75.385574 88.609184
3 86.095154 20.947098 -0.655860 -0.366594 -0.477154 75.385574 88.609184
[L_front_hand02_01]
2 86.935165 -11.437475 24.513514 154.399811 -59.883842 -61.369598 91.046425
3 86.935165 -11.437475 24.513514 154.399796 -59.883835 -61.369587 91.046425
[L_front_hand03_01]
2 86.637497 -14.123976 -20.424902 -153.913849 58.118122 -62.702866 90.126129
3 86.637497 -14.123976 -20.424902 -153.913849 58.118122 -62.702866 90.126129
[L_front_hand01_02]
2 71.020905 -0.000179 0.000030 0.000334 -0.002323 -106.379684 71.020905
3 71.020905 -0.000179 0.000030 0.000334 -0.002323 -106.379684 71.020905
[L_front_hand02_02]
2 71.020927 -0.000119 0.000060 0.000334 -0.002323 -106.379684 71.020927
3 71.020927 -0.000119 0.000060 0.000334 -0.002323 -106.379684 71.020927
[L_front_hand03_02]
2 71.020905 -0.000060 0.000060 0.000334 -0.002323 -106.379684 71.020905
3 71.020905 -0.000060 0.000060 0.000334 -0.002323 -106.379684 71.020905
[R_forearm]
2 322.776428 -0.000060 0.000030 0.208463 0.026596 -98.191154 322.776428
3 322.776428 -0.000060 0.000030 0.208463 0.026596 -98.191154 322.776428
[R_front_hand]
2 238.847015 -0.006795 2.210259 -0.270529 1.703932 2.322530 238.857239
3 238.847015 -0.006795 2.210259 -0.270529 1.703932 2.322530 238.857239
[R_weapon_bone]
2 155.664093 0.002503 -0.000030 0.003487 0.001180 -90.988930 155.664078
3 155.664093 0.002503 -0.000030 0.003487 0.001180 -90.988930 155.664078
[R_front_hand01_01]
2 87.624611 14.231146 22.918642 -154.633499 -59.950619 61.746059 91.683487
3 87.624611 14.231146 22.918642 -154.633484 -59.950619 61.746037 91.683487
[R_front_hand02_01]
2 89.356956 14.367283 -19.491137 154.602661 58.302849 63.744389 92.579636
3 89.356956 14.367283 -19.491137 154.602661 58.302845 63.744381 92.579636
[R_front_hand03_01]
2 87.286232 -22.307278 -0.143439 0.162155 -0.423168 -75.767906 90.091743
3 87.286232 -22.307278 -0.143439 0.162155 -0.423168 -75.767921 90.091743
[R_front_hand01_02]
2 71.020905 0.000060 0.000119 0.002323 -0.000334 106.381721 71.020905
3 71.020905 0.000060 0.000119 0.002323 -0.000334 106.381714 71.020905
[R_front_hand02_02]
2 71.020844 -0.000030 -0.000119 0.002323 -0.000334 106.381721 71.020836
3 71.020844 -0.000030 -0.000119 0.002323 -0.000334 106.381714 71.020836
[R_front_hand03_02]
2 71.020905 0.000000 0.000030 0.002323 -0.000334 106.381721 71.020905
3 71.020905 0.000000 0.000030 0.002323 -0.000334 106.381714 71.020905
[null_rope01_connect]
2 328.732483 0.000000 -0.000238 -119.541275 -47.109665 -141.366821 328.732483
3 328.732483 0.000000 -0.000238 -119.541275 -47.109665 -141.366821 328.732483
[Rope1_Seg01]
2 0.000000 0.000000 0.000000 16.729458 4.085911 -106.425659 0.000000
3 0.000000 0.000000 0.000000 20.897272 4.656562 -108.921356 0.000000
[Rope1_Seg02]
2 139.999863 -0.000179 0.000000 -1.109892 -1.507680 2.509417 139.999863
3 139.999863 -0.000179 0.000000 -2.205816 -0.928777 2.557437 139.999863
[Rope1_Seg03]
2 139.999924 0.000060 -0.000060 -5.411495 -2.284577 7.796249 139.999924
3 139.999924 0.000060 -0.000060 -4.443639 -1.205150 5.029370 139.999924
[Rope1_Seg04]
2 139.999924 -0.000060 -0.000119 2.091818 -2.570981 0.553406 139.999924
3 139.999924 -0.000060 -0.000119 -3.686805 -2.283049 6.309305 139.999924
[Rope1_Seg05]
2 139.999832 0.000119 -0.000060 21.985764 1.700318 -17.608274 139.999832
3 139.999832 0.000119 -0.000060 15.497392 0.826109 -13.127558 139.999832
[Rope1_Seg06]
2 139.999954 0.000119 -0.000060 9.247666 -1.354046 -4.232315 139.999954
3 139.999954 0.000119 -0.000060 9.314056 -0.992250 -5.112503 139.999954
[Rope1_Seg07]
2 139.999985 0.000060 0.000000 5.070666 -1.012737 -1.914640 139.999985
3 139.999985 0.000060 0.000000 4.463466 -0.808407 -1.950366 139.999985
[Rope1_Seg09]
2 121.602913 0.000119 -0.000089 -89.793175 -1.359789 0.847147 121.602913
3 121.602913 0.000119 -0.000089 -89.793175 -1.359789 0.847147 121.602913
[L_mid_hand01]
2 103.859421 1.038730 8.195221 106.855484 -31.239275 -9.461397 104.187431
3 103.859421 1.038730 8.195221 106.855484 -31.239275 -9.461397 104.187431
[L_mid_hand02]
2 105.572853 -4.139662 -10.864139 -142.331345 25.752670 -28.774628 106.211075
3 105.572853 -4.139662 -10.864139 -142.331345 25.752670 -28.774628 106.211075
[L_mid_hand03]
2 104.641464 17.579376 -3.913581 -16.122810 9.734291 34.223598 106.179977
3 104.641464 17.579376 -3.913581 -16.122810 9.734291 34.223598 106.179977
[null_rope02_connect]
2 328.732849 0.000179 -0.000119 -116.029831 50.874500 -29.531246 328.732849
3 328.732849 0.000179 -0.000119 -116.029831 50.874489 -29.531246 328.732849
[Rope2_Seg01]
2 -0.000038 0.000153 0.000000 66.807129 2.520692 -58.485844 0.000157
3 -0.000038 0.000153 0.000000 74.970551 3.827349 -62.414585 0.000157
[Rope2_Seg02]
2 139.999741 -0.000060 -0.000119 2.998172 -6.552751 1.143218 139.999756
3 139.999741 -0.000060 -0.000119 3.422105 -8.485649 1.434675 139.999756
[Rope2_Seg03]
2 140.000107 0.000030 0.000000 -2.512724 -8.146269 5.469217 140.000107
3 140.000107 0.000030 0.000000 -0.560508 -12.887565 5.811058 140.000107
[Rope2_Seg04]
2 139.999802 0.000000 -0.000060 12.168692 6.418233 -11.110385 139.999802
3 139.999802 0.000000 -0.000060 4.438779 11.513844 -9.517030 139.999802
[Rope2_Seg05]
2 139.999985 -0.000060 0.000119 8.666635 2.335443 -5.628065 139.999985
3 139.999985 -0.000060 0.000119 4.851254 6.540389 -5.688369 139.999985
[Rope2_Seg06]
2 139.999893 -0.000030 -0.000119 3.336077 0.306467 -1.800387 139.999893
3 139.999893 -0.000030 -0.000119 2.316259 1.606625 -1.811234 139.999893
[Rope2_Seg07]
2 139.999893 0.000060 -0.000060 2.186647 0.126992 -1.123757 139.999893
3 139.999893 0.000060 -0.000060 1.659120 0.938392 -1.152117 139.999893
[Rope2_Seg09]
2 121.338966 0.000089 -0.000060 33.793236 -1.359788 -0.847141 121.338966
3 121.338966 0.000089 -0.000060 33.793236 -1.359788 -0.847141 121.338966
[R_mid_hand01]
2 104.680779 11.144459 -10.335981 -41.523792 25.424656 28.595957 105.778534
3 104.680779 11.144459 -10.335981 -41.523792 25.424656 28.595957 105.778534
[R_mid_hand02]
2 104.070427 2.443552 8.231699 72.847389 -32.746803 10.013901 104.424065
3 104.070427 2.443552 8.231699 72.847389 -32.746803 10.013901 104.424065
[R_mid_hand03]
2 106.028137 -11.221827 -5.996406 -167.901306 10.259192 -37.009720 106.788818
3 106.028137 -11.221827 -5.996406 -167.901306 10.259192 -37.009720 106.788818
[spine02]
2 129.756927 0.001550 0.000119 0.360061 -4.044797 -12.915058 129.756927
3 129.756927 0.001550 0.000119 0.360061 -4.044797 -12.915058 129.756927
[spine03]
2 78.613846 0.087372 -4.898873 1.896495 3.831288 16.473049 78.766380
3 78.613846 0.087372 -4.898873 1.896494 3.831287 16.473045 78.766380
[pelvis]
2 169.435242 0.051022 0.000000 -0.060465 -0.180225 14.087929 169.435257
3 169.435242 0.051022 0.000000 -0.060465 -0.180225 14.087930 169.435257
[null_rope03_connect]
2 -1.257226 -2.466202 137.391083 156.329697 -89.381973 -94.430779 137.418976
3 -1.257226 -2.466202 137.391083 156.329987 -89.381348 -94.430771 137.418976
[null_rope04_connect]
2 -1.259640 -2.480268 -137.844437 156.329697 -89.381973 -94.430779 137.872513
3 -1.259640 -2.480268 -137.844437 156.329987 -89.381348 -94.430771 137.872513
[Rope3_Seg01]
2 0.000010 0.000038 -0.000114 -128.702240 38.725163 -68.824409 0.000121
3 0.000010 0.000038 -0.000114 -134.661560 40.303947 -78.247505 0.000121
[Rope3_Seg02]
2 139.999924 -0.000119 0.000060 0.842333 11.498025 -2.662658 139.999924
3 139.999924 -0.000119 0.000060 1.668467 8.834518 -4.901447 139.999924
[Rope3_Seg03]
2 139.999924 -0.000119 0.000119 1.976750 13.996200 -3.444114 139.999924
3 139.999924 -0.000119 0.000119 2.051513 11.058750 -6.686746 139.999924
[Rope3_Seg04]
2 139.999924 0.000119 0.000000 4.834847 21.879282 -5.767300 139.999924
3 139.999924 0.000119 0.000000 2.425091 19.698915 -13.377466 139.999924
[Rope3_Seg05]
2 139.999924 -0.000238 0.000060 0.072394 -0.848480 -0.869348 139.999924
3 139.999924 -0.000238 0.000060 0.318492 0.597644 -0.891875 139.999924
[Rope3_Seg06]
2 139.999893 -0.000119 -0.000060 -3.886954 -15.174695 3.964772 139.999893
3 139.999893 -0.000119 -0.000060 -3.662115 -12.778844 9.593243 139.999893
[Rope3_Seg07]
2 139.999771 0.000060 -0.000119 -0.682667 -6.776273 1.181621 139.999771
3 139.999771 0.000060 -0.000119 -0.821198 -5.176027 3.410806 139.999771
[Rope3_Seg08]
2 139.999985 -0.000060 0.000000 0.133673 -3.065552 0.428515 139.999985
3 139.999985 -0.000060 0.000000 -0.019129 -2.357550 1.491064 139.999985
[Rope3_Seg09]
2 90.185997 -0.000179 -0.000060 89.793228 -1.359877 -0.847183 90.185997
3 90.185997 -0.000179 -0.000060 89.793228 -1.359877 -0.847183 90.185997
[R_rear_hand01]
2 103.366196 -6.073594 -10.757982 -161.551193 16.666374 -30.088671 104.101845
3 103.366196 -6.073594 -10.757982 -161.551193 16.666374 -30.088671 104.101845
[R_rear_hand02]
2 100.509819 12.039542 -7.992327 -34.280552 19.289745 28.875523 101.543350
3 100.509819 12.039542 -7.992327 -34.280552 19.289745 28.875523 101.543350
[R_rear_hand03]
2 101.539970 5.215704 5.435467 83.366440 -30.933914 7.284830 101.819031
3 101.539970 5.215704 5.435467 83.366440 -30.933914 7.284830 101.819031
[Rope4_Seg01]
2 0.000010 0.000038 -0.000114 66.024933 28.810644 -64.041359 0.000121
3 0.000010 0.000038 -0.000114 64.313019 28.618708 -67.083641 0.000121
[Rope4_Seg02]
2 139.999985 0.000060 0.000119 0.189665 -16.509020 -6.981580 139.999985
3 139.999985 0.000060 0.000119 0.698451 -15.668776 -7.453249 139.999985
[Rope4_Seg03]
2 139.999924 0.000000 -0.000238 1.712146 -20.889631 -10.047786 139.999924
3 139.999924 0.000000 -0.000238 1.411697 -17.801104 -9.049302 139.999924
[Rope4_Seg04]
2 139.999985 0.000000 0.000119 2.571088 -22.784430 -13.498051 139.999985
3 139.999985 0.000000 0.000119 2.014057 -20.148014 -12.895656 139.999985
[Rope4_Seg05]
2 139.999802 -0.000060 -0.000119 1.446745 -2.445597 1.835954 139.999802
3 139.999802 -0.000060 -0.000119 0.894243 -4.709041 -0.520211 139.999802
[Rope4_Seg06]
2 139.999924 0.000000 0.000060 3.689825 12.124018 13.629506 139.999924
3 139.999924 0.000000 0.000060 2.834942 7.116032 9.865086 139.999924
[Rope4_Seg07]
2 139.999802 0.000000 0.000000 1.339347 9.630741 10.407840 139.999802
3 139.999802 0.000000 0.000000 2.007805 9.526746 11.349827 139.999802
[Rope4_Seg08]
2 139.999924 0.000000 0.000119 -1.535694 4.270048 5.138282 139.999924
3 139.999924 0.000000 0.000119 -1.306603 3.635356 5.128177 139.999924
[Rope4_Seg09]
2 90.185791 0.000060 0.000060 -135.617828 2.228885 0.850567 90.185791
3 90.185791 0.000060 0.000060 -135.617828 2.228885 0.850567 90.185791
[L_rear_hand01]
2 101.696655 -8.392275 -7.654577 -34.454281 -18.946800 151.655121 102.329041
3 101.696655 -8.392275 -7.654577 -34.454281 -18.946800 151.655121 102.329041
[L_rear_hand02]
2 102.726799 -1.568258 5.773216 83.407906 30.330435 172.796509 102.900848
3 102.726799 -1.568258 5.773216 83.407906 30.330435 172.796509 102.900848
[L_rear_hand03]
2 104.552910 9.721220 -10.420293 -161.379868 -16.473232 -150.512238 105.519653
3 104.552910 9.721220 -10.420293 -161.379868 -16.473232 -150.512238 105.519653
